<?xml version="1.0" encoding="UTF-8" standalone="no"?>
<!DOCTYPE svg PUBLIC "-//W3C//DTD SVG 1.1//EN" "http://www.w3.org/Graphics/SVG/1.1/DTD/svg11.dtd">
<svg version="1.1" xmlns="http://www.w3.org/2000/svg" xmlns:xlink="http://www.w3.org/1999/xlink" preserveAspectRatio="xMidYMid meet" viewBox="213.4907343764999 239.4848484848483 82.78787878787884 69.15151515151544" width="200" height="200"><defs><path d="M234.19 259.1C234.19 253.97 230.65 249.79 226.31 249.79C221.96 249.79 218.43 253.97 218.43 259.1C218.43 264.23 221.96 268.41 226.31 268.41C230.65 268.41 234.19 264.23 234.19 259.1ZM289.34 259.1C289.34 253.97 285.81 249.79 281.46 249.79C277.11 249.79 273.58 253.97 273.58 259.1C273.58 264.23 277.11 268.41 281.46 268.41C285.81 268.41 289.34 264.23 289.34 259.1ZM277.52 273.06C275.35 273.06 273.4 274.09 271.97 275.77C276.93 278.98 280.45 284.78 281.21 291.68C282.03 291.68 288.53 291.68 289.34 291.68C291.52 291.68 293.28 289.6 293.28 287.02C293.28 286.56 293.28 282.83 293.28 282.37C293.28 277.23 289.75 273.06 285.4 273.06C283.82 273.06 278.31 273.06 277.52 273.06ZM267.67 256.77C267.67 247.77 261.5 240.48 253.88 240.48C246.26 240.48 240.1 247.77 240.1 256.77C240.1 265.77 246.26 273.06 253.88 273.06C261.5 273.06 267.67 265.77 267.67 256.77ZM262.32 277.71C259.76 279.17 256.91 280.04 253.88 280.04C250.86 280.04 248.02 279.17 245.45 277.71C245.35 277.71 244.53 277.71 244.43 277.71C236.6 277.71 230.25 285.22 230.25 294.47C230.25 294.89 230.25 298.24 230.25 298.66C230.25 302.51 232.9 305.64 236.16 305.64C239.7 305.64 268.07 305.64 271.61 305.64C274.87 305.64 277.52 302.51 277.52 298.66C277.52 298.24 277.52 294.89 277.52 294.47C277.52 285.22 271.17 277.71 263.34 277.71C263.13 277.71 262.42 277.71 262.32 277.71ZM230.25 273.06C229.46 273.06 223.16 273.06 222.37 273.06C218.02 273.06 214.49 277.23 214.49 282.37C214.49 282.83 214.49 286.56 214.49 287.02C214.49 289.6 216.25 291.68 218.43 291.68C219.24 291.68 225.73 291.68 226.54 291.68C227.32 284.78 230.84 278.98 235.8 275.77C234.37 274.09 232.41 273.06 230.25 273.06Z" id="fw6od1fMb"></path></defs><g><g><use xlink:href="#fw6od1fMb" opacity="1" fill="#81f0c7" fill-opacity="1"></use><g><use xlink:href="#fw6od1fMb" opacity="1" fill-opacity="0" stroke="#000000" stroke-width="1" stroke-opacity="0"></use></g></g></g></svg>