<?xml version="1.0" encoding="UTF-8" standalone="no"?>
<!DOCTYPE svg PUBLIC "-//W3C//DTD SVG 1.1//EN" "http://www.w3.org/Graphics/SVG/1.1/DTD/svg11.dtd">
<svg version="1.1" xmlns="http://www.w3.org/2000/svg" xmlns:xlink="http://www.w3.org/1999/xlink" preserveAspectRatio="xMidYMid meet" viewBox="210.0346737704393 578.9706403172763 89.70000000000002 78.99999999999989" width="200" height="200"><defs><path d="M253.88 587.89C244.63 578.47 229.68 577.23 220.01 585.38C207.42 595.97 209.26 613.25 218.23 622.4C221.17 625.39 244.66 649.32 247.59 652.31C249.26 654.02 251.51 654.97 253.88 654.97C256.28 654.97 258.5 654.03 260.18 652.33C263.11 649.34 286.6 625.41 289.54 622.42C298.49 613.26 300.37 595.99 287.76 585.38C278.09 577.25 263.14 578.47 253.88 587.89ZM254.45 646.67C254.05 647.07 253.72 647.07 253.32 646.67C250.38 643.68 226.89 619.75 223.96 616.76C217.85 610.54 216.61 598.75 225.18 591.54C231.69 586.07 241.73 586.89 248.03 593.3C248.42 593.69 250.37 595.69 253.88 599.27C257.4 595.69 259.35 593.69 259.74 593.3C266.07 586.85 276.11 586.07 282.59 591.52C291.14 598.74 289.87 610.59 283.81 616.76C277.94 622.74 257.39 643.68 254.45 646.67Z" id="g2hpIF4KR7"></path></defs><g><g><use xlink:href="#g2hpIF4KR7" opacity="1" fill="#edeff5" fill-opacity="1"></use><g><use xlink:href="#g2hpIF4KR7" opacity="1" fill-opacity="0" stroke="#000000" stroke-width="1" stroke-opacity="0"></use></g></g></g></svg>