<?xml version="1.0" encoding="UTF-8" standalone="no"?>
<!DOCTYPE svg PUBLIC "-//W3C//DTD SVG 1.1//EN" "http://www.w3.org/Graphics/SVG/1.1/DTD/svg11.dtd">
<svg version="1.1" xmlns="http://www.w3.org/2000/svg" xmlns:xlink="http://www.w3.org/1999/xlink" preserveAspectRatio="xMidYMid meet" viewBox="207.86213049182425 418.2032012249404 94.04508655723009 69.1515151515153" width="200" height="200"><defs><path d="M215.62 419.2C211.89 419.2 208.86 421.94 208.86 425.31C208.86 429.38 208.86 461.96 208.86 466.03C208.86 469.4 211.89 472.14 215.62 472.14C217.87 472.14 229.12 472.14 249.38 472.14L249.38 476.21C234.52 476.21 226.27 476.21 224.62 476.21C223.38 476.21 222.37 477.12 222.37 478.25C222.37 478.65 222.37 481.91 222.37 482.32C222.37 483.44 223.38 484.35 224.62 484.35C230.47 484.35 277.3 484.35 283.15 484.35C284.39 484.35 285.4 483.44 285.4 482.32C285.4 481.91 285.4 478.65 285.4 478.25C285.4 477.12 284.39 476.21 283.15 476.21C281.5 476.21 273.24 476.21 258.39 476.21L258.39 472.14C278.65 472.14 289.9 472.14 292.15 472.14C295.88 472.14 298.91 469.4 298.91 466.03C298.91 461.96 298.91 429.38 298.91 425.31C298.91 421.94 295.88 419.2 292.15 419.2C276.85 419.2 223.27 419.2 215.62 419.2ZM289.9 463.99L217.87 463.99L217.87 427.35L289.9 427.35L289.9 463.99Z" id="bhU4k9QJQ"></path></defs><g><g><use xlink:href="#bhU4k9QJQ" opacity="1" fill="#81f0c7" fill-opacity="1"></use><g><use xlink:href="#bhU4k9QJQ" opacity="1" fill-opacity="0" stroke="#000000" stroke-width="1" stroke-opacity="0"></use></g></g></g></svg>